<svg preserveAspectRatio="none" width="100%" height="100%" overflow="visible" style="display: block;" viewBox="0 0 113.525 34.9194" fill="none" xmlns="http://www.w3.org/2000/svg">
<g id="Group 23">
<path id="Vector" d="M64.2374 8.82137L44.7811 10.8767C44.0142 10.9591 43.2913 11.2761 42.711 11.7844C42.1308 12.2927 41.7214 12.9676 41.5387 13.7171C41.3561 14.4665 41.409 15.2541 41.6903 15.9724C41.9716 16.6907 42.4676 17.3047 43.1107 17.7308L49.2538 21.7698C49.3986 21.8698 49.522 21.9977 49.6168 22.146C49.7116 22.2942 49.7759 22.4599 49.806 22.6333L50.8945 29.9043C50.9879 30.5221 51.2342 31.1068 51.6111 31.6052C51.988 32.1036 52.4834 32.4999 53.0525 32.7582C53.6215 33.0164 54.246 33.1283 54.8693 33.0838C55.4925 33.0393 56.0948 32.8397 56.6213 32.5032C57.1113 32.183 57.5234 31.7573 57.8275 31.2573L67.857 14.4591C68.2118 13.8616 68.3935 13.1774 68.3821 12.4826C68.3706 11.7879 68.1663 11.11 67.792 10.5246C67.4177 9.93923 66.8881 9.46935 66.2623 9.16741C65.6365 8.86547 64.9391 8.74333 64.2479 8.81464L64.2374 8.82137ZM65.704 13.1801L55.6745 29.9783C55.5403 30.195 55.3431 30.3656 55.1093 30.467C54.8754 30.5685 54.6162 30.5961 54.3662 30.546C54.1163 30.496 53.8876 30.3707 53.7109 30.187C53.5342 30.0033 53.4178 29.77 53.3775 29.5183L52.2785 22.2541C52.2628 22.1577 52.2415 22.0624 52.2146 21.9685L59.4702 17.3292C59.7495 17.1506 59.9464 16.8684 60.0176 16.5447C60.0888 16.2209 60.0285 15.8821 59.8499 15.6028C59.6714 15.3235 59.3891 15.1266 59.0654 15.0554C58.7416 14.9842 58.4028 15.0445 58.1235 15.2231L50.8679 19.8624C50.794 19.7986 50.7164 19.7393 50.6355 19.6846L44.5029 15.6389C44.2914 15.4967 44.1284 15.2932 44.0358 15.0557C43.9432 14.8182 43.9255 14.5581 43.9849 14.3102C44.0443 14.0623 44.1782 13.8385 44.3684 13.6689C44.5586 13.4992 44.7962 13.3917 45.0492 13.3609L64.5055 11.3056C64.7345 11.2837 64.9651 11.3254 65.1719 11.4261C65.3787 11.5269 65.5537 11.6827 65.6776 11.8765C65.8016 12.0703 65.8696 12.2946 65.8743 12.5246C65.8789 12.7546 65.82 12.9814 65.704 13.1801Z" fill="var(--fill-0, #F0F0F0)"/>
<path id="Vector_2" d="M88.5254 33.0812V11.7143C88.5254 10.973 88.8063 10.2621 89.3064 9.73799C89.8065 9.21384 90.4848 8.91938 91.192 8.91938H109.859C110.566 8.91938 111.244 9.21384 111.744 9.73799C112.244 10.2621 112.525 10.973 112.525 11.7143V25.6887C112.525 26.43 112.244 27.1409 111.744 27.665C111.244 28.1892 110.566 28.4836 109.859 28.4836H95.14C94.7403 28.4837 94.3458 28.5779 93.9855 28.7593C93.6252 28.9407 93.3085 29.2047 93.0587 29.5317L89.9507 33.6039C89.8473 33.7397 89.7061 33.8385 89.5467 33.8866C89.3874 33.9347 89.2177 33.9297 89.0612 33.8723C88.9046 33.8149 88.769 33.708 88.673 33.5663C88.577 33.4245 88.5254 33.255 88.5254 33.0812Z" stroke="var(--stroke-0, #F0F0F0)" stroke-width="2"/>
<path id="Vector_3" fill-rule="evenodd" clip-rule="evenodd" d="M22.772 19.697C23.7649 18.6884 24.3166 17.3267 24.3055 15.9113C24.2944 14.496 23.7216 13.143 22.713 12.1501C22.2136 11.6584 21.6222 11.2699 20.9727 11.0068C20.3231 10.7437 19.6281 10.6111 18.9273 10.6165C17.512 10.6276 16.159 11.2004 15.166 12.209C14.8964 12.4787 14.5537 12.8096 14.1381 13.2019L12.9823 14.2903L11.8265 13.2019C11.4099 12.8087 11.0667 12.4777 10.7971 12.209C9.79632 11.2083 8.43896 10.646 7.02363 10.646C5.6083 10.646 4.25094 11.2083 3.25015 12.209C1.18857 14.272 1.1647 17.6074 3.17432 19.6802L12.9823 29.4881L22.772 19.697ZM2.05786 11.0182C2.70992 10.3659 3.48407 9.84856 4.3361 9.49557C5.18814 9.14257 6.10137 8.96089 7.02363 8.96089C7.9459 8.96089 8.85912 9.14257 9.71116 9.49557C10.5632 9.84856 11.3373 10.3659 11.9894 11.0182C12.245 11.2747 12.576 11.5939 12.9823 11.9759C13.3867 11.5939 13.7177 11.2742 13.9751 11.0168C15.2819 9.68988 17.0622 8.93646 18.9245 8.92224C20.7868 8.90802 22.5784 9.63416 23.9053 10.9409C25.2322 12.2477 25.9856 14.028 25.9998 15.8903C26.014 17.7525 25.2879 19.5442 23.9811 20.8711L13.9751 30.8784C13.7118 31.1417 13.3547 31.2896 12.9823 31.2896C12.6099 31.2896 12.2528 31.1417 11.9894 30.8784L1.98062 20.8697C0.697108 19.5459 -0.0142357 17.7704 0.000215967 15.9267C0.0146676 14.0829 0.753755 12.3188 2.05786 11.0154V11.0182Z" fill="var(--fill-0, #F0F0F0)"/>
</g>
</svg>
